<svg width="115" height="129" viewBox="0 0 115 129" fill="none" xmlns="http://www.w3.org/2000/svg">
<path d="M48.0059 2.64992L8.78633 26.4776C3.37698 29.768 0.0692139 35.6201 0.0692139 41.9285V86.1242C0.0692139 92.4253 3.36218 98.2699 8.76412 101.56L47.9911 125.454C53.8222 129.01 61.163 129.01 66.9941 125.454L106.221 101.56C111.623 98.2699 114.916 92.4253 114.916 86.1242V41.9653C114.916 35.6569 111.616 29.8122 106.214 26.5218L66.9867 2.65728C61.163 -0.883381 53.837 -0.890742 48.0059 2.65728V2.64992ZM57.5 113.507V69.1791C57.5 67.6701 56.7156 66.2715 55.4206 65.4912L14.8099 40.7581C12.9081 39.6024 12.9081 36.8567 14.8099 35.6937L54.4142 11.5715C56.3012 10.4232 58.684 10.4232 60.571 11.5715L101.7 36.6212C103.38 37.6443 104.408 39.4699 104.408 41.4279V85.815C104.408 88.5975 102.95 91.1812 100.568 92.6314L62.0362 116.039C60.0456 117.247 57.5 115.826 57.5 113.507Z" fill="#FF9200"/>
</svg>
