<svg width="30" height="32" viewBox="0 0 30 32" fill="none" xmlns="http://www.w3.org/2000/svg">
<path d="M12.9436 1.3335H3.2663C2.94548 1.3335 2.6378 1.47397 2.41094 1.72402C2.18409 1.97407 2.05664 2.31321 2.05664 2.66683V13.3335C2.05664 13.6871 2.18409 14.0263 2.41094 14.2763C2.6378 14.5264 2.94548 14.6668 3.2663 14.6668H12.9436C13.2644 14.6668 13.5721 14.5264 13.799 14.2763C14.0258 14.0263 14.1533 13.6871 14.1533 13.3335V2.66683C14.1533 2.31321 14.0258 1.97407 13.799 1.72402C13.5721 1.47397 13.2644 1.3335 12.9436 1.3335ZM11.7339 12.0002H4.47596V4.00016H11.7339V12.0002Z" fill="#969BA0"/>
<path d="M27.4592 1.33325H17.7819C17.4611 1.33325 17.1534 1.47373 16.9266 1.72378C16.6997 1.97382 16.5723 2.31296 16.5723 2.66659V13.3333C16.5723 13.6869 16.6997 14.026 16.9266 14.2761C17.1534 14.5261 17.4611 14.6666 17.7819 14.6666H27.4592C27.78 14.6666 28.0877 14.5261 28.3146 14.2761C28.5414 14.026 28.6689 13.6869 28.6689 13.3333V2.66659C28.6689 2.31296 28.5414 1.97382 28.3146 1.72378C28.0877 1.47373 27.78 1.33325 27.4592 1.33325ZM26.2496 11.9999H18.9916V3.99992H26.2496V11.9999Z" fill="#969BA0"/>
<path d="M12.9436 17.3335H3.2663C2.94548 17.3335 2.6378 17.474 2.41094 17.724C2.18409 17.9741 2.05664 18.3132 2.05664 18.6668V29.3335C2.05664 29.6871 2.18409 30.0263 2.41094 30.2763C2.6378 30.5264 2.94548 30.6668 3.2663 30.6668H12.9436C13.2644 30.6668 13.5721 30.5264 13.799 30.2763C14.0258 30.0263 14.1533 29.6871 14.1533 29.3335V18.6668C14.1533 18.3132 14.0258 17.9741 13.799 17.724C13.5721 17.474 13.2644 17.3335 12.9436 17.3335ZM11.7339 28.0002H4.47596V20.0002H11.7339V28.0002Z" fill="#969BA0"/>
<path d="M27.4592 17.3333H17.7819C17.4611 17.3333 17.1534 17.4737 16.9266 17.7238C16.6997 17.9738 16.5723 18.313 16.5723 18.6666V29.3333C16.5723 29.6869 16.6997 30.026 16.9266 30.2761C17.1534 30.5261 17.4611 30.6666 17.7819 30.6666H27.4592C27.78 30.6666 28.0877 30.5261 28.3146 30.2761C28.5414 30.026 28.6689 29.6869 28.6689 29.3333V18.6666C28.6689 18.313 28.5414 17.9738 28.3146 17.7238C28.0877 17.4737 27.78 17.3333 27.4592 17.3333ZM26.2496 27.9999H18.9916V19.9999H26.2496V27.9999Z" fill="#969BA0"/>
</svg>
